# xmcd
#
# Track frame offsets:
#	150
#	10595
#	22602
#	32100
#	54735
#	63375
#	67632
#	78375
#	82745
#	91350
#	99750
#	105585
#	114165
#	130275
#	148245
#	154387
#	167175
#	171020
#	182032
#	196117
#	212550
#	229725
#
# Disc length: 3206 seconds
#
# Revision: 1
# Processed by: cddbd v1.5.2PL0 Copyright (c) Steve Scherf et al.
# Submitted via: EasyCDDAExtractor 8.2.3.1
#
DISCID=0c0c8416
DTITLE=Various Artist - Wildwood Picking
DYEAR=1997
DGENRE=Bluegrass
TTITLE0=Maybelle Carter - Introduction_Bill Clifton
TTITLE1=Maybelle Carter - Weeping Willow (Bury Me Under the)
TTITLE2=Maybelle Carter - Cannonball Blues (He's Solid Gone)
TTITLE3=Maybelle Carter - Two Sweethearts of Mine (Two Sweethearts at Home)
TTITLE4=Maybelle Carter - Wabash Cannonball
TTITLE5=Maybelle Carter - Coal Miner's Blues
TTITLE6=Maybelle Carter - Lover's Farewell
TTITLE7=Maybelle Carter - Little Brown Jug
TTITLE8=Maybelle Carter - Unknown Fiddle Tune
TTITLE9=Maybelle Carter - San Antonio Rose
TTITLE10=Maybelle Carter - Liberty Dance
TTITLE11=Maybelle Carter - Bully of the Town
TTITLE12=Maybelle Carter - My Native Home
TTITLE13=Maybelle Carter - Fair and Tender Ladies (Come all ye)
TTITLE14=Maybelle Carter - Tennessee Waltz
TTITLE15=Maybelle Carter - Never on Sunday
TTITLE16=Maybelle Carter - Gathering Flowers from the Hillside
TTITLE17=Maybelle Carter - Little Darling Pal of Mine
TTITLE18=New Lost City Ramblers and Maybelle Carter - It Takes a Worried Man (Wo
TTITLE18=rried Man Blues)
TTITLE19=New Lost City Ramblers and Maybelle Carter - The Storms are on the Ocea
TTITLE19=n
TTITLE20=New Lost City Ramblers and Maybelle Carter - Wildwood Flower
TTITLE21=New Lost City Ramblers and Maybelle Carter - Gold Watch and Chain
EXTD=
EXTT0=
EXTT1=
EXTT2=
EXTT3=
EXTT4=
EXTT5=
EXTT6=
EXTT7=
EXTT8=
EXTT9=
EXTT10=
EXTT11=
EXTT12=
EXTT13=
EXTT14=
EXTT15=
EXTT16=
EXTT17=
EXTT18=
EXTT19=
EXTT20=
EXTT21=
PLAYORDER=
